<svg width="50" height="40" viewBox="0 0 50 40" fill="none" xmlns="http://www.w3.org/2000/svg">
<path d="M42.5 0H7.5C5.51088 0 3.60322 0.790177 2.1967 2.1967C0.790177 3.60322 0 5.51088 0 7.5V32.5C0 34.4891 0.790177 36.3968 2.1967 37.8033C3.60322 39.2098 5.51088 40 7.5 40H42.5C44.4891 40 46.3968 39.2098 47.8033 37.8033C49.2098 36.3968 50 34.4891 50 32.5V7.5C50 5.51088 49.2098 3.60322 47.8033 2.1967C46.3968 0.790177 44.4891 0 42.5 0ZM42.5 5L26.25 16.175C25.87 16.3944 25.4388 16.5099 25 16.5099C24.5612 16.5099 24.13 16.3944 23.75 16.175L7.5 5H42.5Z" fill="white"/>
</svg>
